<svg width="453" height="444" viewBox="0 0 453 444" fill="none" xmlns="http://www.w3.org/2000/svg">
<g clip-path="url(#clip0_21_26)">
<path d="M93.8181 63.2442C181.534 61.2362 240.917 20.0403 283.298 19.1541C325.678 18.2679 415.006 37.4996 419.073 208.393C423.139 379.287 304.258 406.888 257.626 407.951C39.6481 412.737 -61.5829 66.7325 93.8181 63.2442Z" fill="#EFEFEF"/>
<path d="M155.792 68.9982C153.077 69.4761 150.28 68.9978 147.878 67.6448C145.476 66.2918 143.618 64.1479 142.62 61.5783C141.621 59.0087 141.545 56.1724 142.403 53.5527C143.261 50.9329 145.001 48.6918 147.327 47.2112C149.652 45.7306 152.419 45.102 155.156 45.4327C157.893 45.7633 160.43 47.0327 162.336 49.0245C164.242 51.0163 165.398 53.6073 165.608 56.3561C165.818 59.1049 165.068 61.8413 163.486 64.0992C162.59 65.3825 161.449 66.476 160.128 67.3167C158.808 68.1575 157.334 68.7289 155.792 68.9982V68.9982ZM153.076 53.6224C152.233 53.7708 151.467 54.2069 150.909 54.8566C150.351 55.5063 150.036 56.3293 150.017 57.1854C149.998 58.0414 150.277 58.8776 150.805 59.5513C151.334 60.2251 152.079 60.6947 152.915 60.8803C153.751 61.0659 154.625 60.9559 155.389 60.569C156.153 60.1821 156.759 59.5423 157.104 58.7587C157.449 57.975 157.512 57.0959 157.282 56.2713C157.051 55.4466 156.542 54.7274 155.841 54.2361C155.443 53.9567 154.994 53.7586 154.52 53.6532C154.045 53.5479 153.554 53.5374 153.076 53.6224V53.6224Z" fill="#565353"/>
<path d="M403.682 126.782C400.967 127.26 398.17 126.782 395.768 125.429C393.366 124.076 391.508 121.932 390.51 119.362C389.511 116.793 389.435 113.956 390.293 111.337C391.151 108.717 392.891 106.476 395.217 104.995C397.542 103.515 400.309 102.886 403.046 103.217C405.783 103.547 408.32 104.817 410.226 106.808C412.132 108.8 413.288 111.391 413.498 114.14C413.708 116.889 412.958 119.625 411.376 121.883C410.48 123.167 409.339 124.26 408.018 125.101C406.698 125.941 405.224 126.513 403.682 126.782V126.782ZM400.966 111.406C400.123 111.555 399.357 111.991 398.799 112.641C398.241 113.29 397.926 114.113 397.907 114.969C397.888 115.825 398.167 116.662 398.695 117.335C399.224 118.009 399.969 118.479 400.805 118.664C401.641 118.85 402.515 118.74 403.279 118.353C404.043 117.966 404.649 117.326 404.994 116.543C405.339 115.759 405.402 114.88 405.172 114.055C404.941 113.231 404.432 112.511 403.73 112.02C403.333 111.741 402.884 111.543 402.409 111.437C401.935 111.332 401.444 111.321 400.966 111.406V111.406Z" fill="#565353"/>
<path d="M210.254 377.303C207.539 377.781 204.742 377.302 202.341 375.949C199.939 374.596 198.081 372.452 197.082 369.882C196.084 367.313 196.008 364.477 196.866 361.857C197.724 359.237 199.465 356.996 201.79 355.516C204.115 354.035 206.882 353.407 209.619 353.738C212.356 354.068 214.893 355.338 216.799 357.329C218.705 359.321 219.861 361.912 220.071 364.661C220.281 367.41 219.531 370.146 217.949 372.404C217.053 373.687 215.911 374.781 214.591 375.622C213.27 376.462 211.796 377.034 210.254 377.303ZM207.538 361.927C206.695 362.077 205.929 362.514 205.372 363.164C204.815 363.814 204.501 364.638 204.483 365.494C204.465 366.35 204.744 367.186 205.274 367.859C205.803 368.532 206.549 369.001 207.385 369.185C208.221 369.37 209.095 369.259 209.859 368.871C210.622 368.484 211.228 367.843 211.572 367.059C211.916 366.275 211.978 365.396 211.746 364.571C211.515 363.747 211.005 363.028 210.303 362.538C209.905 362.259 209.456 362.061 208.981 361.957C208.507 361.852 208.016 361.842 207.538 361.927V361.927Z" fill="#565353"/>
<path d="M106.518 124.632C105.987 124.726 105.442 124.715 104.915 124.599C104.388 124.483 103.889 124.264 103.447 123.955L97.7677 119.981L93.7938 125.66C93.1687 126.553 92.2145 127.162 91.1409 127.351C90.0674 127.541 88.9625 127.296 88.0694 126.671C87.1763 126.046 86.568 125.092 86.3785 124.018C86.1889 122.945 86.4336 121.84 87.0587 120.947L93.3918 111.896C94.0167 111.003 94.9709 110.395 96.0443 110.205C97.1177 110.015 98.2225 110.26 99.1156 110.885L108.165 117.218C108.831 117.684 109.344 118.337 109.639 119.094C109.934 119.851 109.998 120.678 109.823 121.472C109.648 122.265 109.242 122.989 108.655 123.551C108.069 124.114 107.329 124.49 106.529 124.633L106.518 124.632Z" fill="#707070"/>
<path d="M347.369 355.319C346.838 355.413 346.293 355.403 345.766 355.286C345.239 355.17 344.74 354.951 344.298 354.642L338.619 350.668L334.645 356.347C334.02 357.241 333.065 357.849 331.992 358.038C330.918 358.228 329.813 357.983 328.92 357.358C328.027 356.733 327.419 355.779 327.229 354.705C327.04 353.632 327.285 352.527 327.91 351.634L334.243 342.583C334.868 341.69 335.822 341.082 336.895 340.893C337.969 340.703 339.073 340.947 339.967 341.572L349.016 347.905C349.682 348.371 350.195 349.024 350.49 349.781C350.785 350.538 350.849 351.365 350.674 352.159C350.499 352.952 350.093 353.676 349.506 354.238C348.92 354.801 348.18 355.177 347.38 355.32L347.369 355.319Z" fill="#707070"/>
<path d="M130.032 395.743C129.501 395.837 128.956 395.827 128.429 395.71C127.902 395.594 127.403 395.375 126.961 395.066L121.282 391.092L117.308 396.771C116.998 397.214 116.605 397.591 116.15 397.881C115.694 398.171 115.186 398.368 114.655 398.462C114.123 398.556 113.579 398.544 113.052 398.428C112.524 398.311 112.026 398.092 111.583 397.782C111.141 397.473 110.764 397.079 110.474 396.624C110.184 396.169 109.986 395.661 109.892 395.129C109.799 394.598 109.81 394.053 109.927 393.526C110.044 392.999 110.263 392.5 110.573 392.058L116.906 383.007C117.531 382.114 118.485 381.506 119.558 381.316C120.632 381.127 121.736 381.371 122.63 381.996L131.68 388.329C132.346 388.795 132.86 389.448 133.154 390.206C133.449 390.963 133.513 391.792 133.337 392.585C133.162 393.379 132.754 394.103 132.167 394.665C131.58 395.228 130.839 395.603 130.038 395.744L130.032 395.743Z" fill="#707070"/>
<path d="M144.023 118.428L310.576 153.776C313.743 154.448 315.426 156.738 316.281 158.542C317.621 161.371 317.924 164.982 317.133 168.71L317.07 169.006L317.052 169.308L309.139 304.847C308.743 306.573 308.09 308.184 307.198 309.64C306.31 311.09 305.225 312.321 303.975 313.3C301.577 315.178 298.825 315.909 296.226 315.357L135.049 281.151C132.451 280.599 130.233 278.814 128.804 276.124C128.059 274.721 127.568 273.156 127.345 271.47C127.109 269.686 127.186 267.853 127.575 266.021L127.646 265.687L127.659 265.346L132.948 129.285C133.794 125.541 135.395 122.406 137.476 120.432C139.416 118.592 141.619 117.918 144.023 118.428Z" fill="white"/>
<path d="M143.193 122.342C140.083 121.682 137.82 126.259 136.931 129.833L131.657 265.501L131.631 266.184L131.489 266.852C130.466 271.671 132.518 276.523 135.88 277.237L297.057 311.443C300.298 312.131 303.989 308.809 305.166 304.252L313.058 169.075L313.093 168.471L313.219 167.88C314.163 163.433 313.121 158.406 309.745 157.689L143.193 122.342ZM144.854 114.514L311.406 149.862C319.215 151.519 323.024 160.222 321.047 169.541L313.115 305.398C311.137 314.717 303.204 320.928 295.395 319.271L134.219 285.065C126.41 283.407 121.684 274.51 123.661 265.191L128.964 128.776C130.942 119.457 137.046 112.857 144.854 114.514Z" fill="#707070"/>
<path d="M190.736 150.838L363.632 187.531C366.318 188.101 368.268 189.524 369.427 191.759C370.557 193.937 370.859 196.779 370.288 199.798L322.672 308.9L322.509 309.272L322.425 309.67C321.815 312.544 320.122 315.01 317.657 316.611C315.193 318.213 312.253 318.759 309.378 318.148L142.062 282.639C139.187 282.029 136.721 280.336 135.12 277.871C133.579 275.5 133.015 272.688 133.518 269.918L178.43 160.204L178.566 159.871L178.641 159.518C179.279 156.511 180.858 153.972 183.087 152.37C185.305 150.776 187.95 150.246 190.736 150.838Z" fill="white"/>
<path d="M189.905 154.751C185.854 153.892 183.255 157.05 182.555 160.349L182.405 161.053L182.132 161.719L137.399 271.001C136.946 274.572 139.308 277.965 142.892 278.725L310.208 314.235C313.985 315.036 317.71 312.616 318.511 308.839L318.68 308.044L319.005 307.299L366.429 198.637C366.792 196.332 366.816 192.297 362.802 191.445L189.905 154.751ZM191.567 146.924L364.463 183.618C372.569 185.338 375.846 192.9 374.126 201.006L326.339 310.5C324.619 318.606 316.653 323.783 308.547 322.062L141.231 286.553C133.125 284.833 127.949 276.867 129.669 268.761L174.727 158.688C176.447 150.582 183.461 145.204 191.567 146.924Z" fill="#707070"/>
<path d="M266.1 278.799C266.1 278.799 264.109 265.134 244.99 255.566C225.87 245.998 206.609 257.716 206.609 257.716" stroke="#707070" stroke-width="10.0025"/>
<path d="M284.549 215.184L275.503 233.714" stroke="#707070" stroke-width="10.0025"/>
<path d="M237.179 197.974L228.134 216.504" stroke="#707070" stroke-width="10.0025"/>
<path d="M353.607 103.375L328.314 121.986" stroke="#707070" stroke-width="10.0056"/>
<path d="M311.073 67.936L298.561 97.408" stroke="#707070" stroke-width="10.0056"/>
<path d="M246.454 66.583L254.569 96.116" stroke="#707070" stroke-width="10.0056"/>
</g>
<defs>
<clipPath id="clip0_21_26">
<rect width="452.693" height="443.368" fill="white"/>
</clipPath>
</defs>
</svg>
